<?xml version="1.0" encoding="utf-8" standalone="no"?>
<!DOCTYPE svg PUBLIC "-//W3C//DTD SVG 1.1//EN"
  "http://www.w3.org/Graphics/SVG/1.1/DTD/svg11.dtd">
<!-- Created with matplotlib (https://matplotlib.org/) -->
<svg height="302.4pt" version="1.1" viewBox="0 0 446.4 302.4" width="446.4pt" xmlns="http://www.w3.org/2000/svg" xmlns:xlink="http://www.w3.org/1999/xlink">
 <defs>
  <style type="text/css">
*{stroke-linecap:butt;stroke-linejoin:round;}
  </style>
 </defs>
 <g id="figure_1">
  <g id="patch_1">
   <path d="M 0 302.4 
L 446.4 302.4 
L 446.4 0 
L 0 0 
z
" style="fill:#ffffff;"/>
  </g>
  <g id="axes_1">
   <g id="patch_2">
    <path clip-path="url(#pe95c56c4b2)" d="M 171.442591 87.822506 
Q 223.200871 61.943366 273.95915 36.564227 
" style="fill:none;stroke:#000000;stroke-linecap:round;"/>
    <path clip-path="url(#pe95c56c4b2)" d="M 269.487014 36.564227 
L 273.95915 36.564227 
L 271.275868 40.141935 
L 269.487014 36.564227 
z
" style="stroke:#000000;stroke-linecap:round;"/>
   </g>
   <g id="patch_3">
    <path clip-path="url(#pe95c56c4b2)" d="M 172.241597 90.27158 
Q 223.20006 81.778502 273.055701 73.469229 
" style="fill:none;stroke:#000000;stroke-linecap:round;"/>
    <path clip-path="url(#pe95c56c4b2)" d="M 268.781327 72.154037 
L 273.055701 73.469229 
L 269.438923 76.099613 
L 268.781327 72.154037 
z
" style="stroke:#000000;stroke-linecap:round;"/>
   </g>
   <g id="patch_4">
    <path clip-path="url(#pe95c56c4b2)" d="M 172.241597 93.120156 
Q 223.20006 101.613233 273.055701 109.922507 
" style="fill:none;stroke:#000000;stroke-linecap:round;"/>
    <path clip-path="url(#pe95c56c4b2)" d="M 269.438923 107.292123 
L 273.055701 109.922507 
L 268.781327 111.237699 
L 269.438923 107.292123 
z
" style="stroke:#000000;stroke-linecap:round;"/>
   </g>
   <g id="patch_5">
    <path clip-path="url(#pe95c56c4b2)" d="M 171.442591 95.569229 
Q 223.200871 121.448369 273.95915 146.827509 
" style="fill:none;stroke:#000000;stroke-linecap:round;"/>
    <path clip-path="url(#pe95c56c4b2)" d="M 271.275868 143.2498 
L 273.95915 146.827509 
L 269.487014 146.827509 
L 271.275868 143.2498 
z
" style="stroke:#000000;stroke-linecap:round;"/>
   </g>
   <g id="patch_6">
    <path clip-path="url(#pe95c56c4b2)" d="M 170.345774 97.237456 
Q 223.197201 141.280312 275.18973 184.60742 
" style="fill:none;stroke:#000000;stroke-linecap:round;"/>
    <path clip-path="url(#pe95c56c4b2)" d="M 273.397214 180.51024 
L 275.18973 184.60742 
L 270.836476 183.583125 
L 273.397214 180.51024 
z
" style="stroke:#000000;stroke-linecap:round;"/>
   </g>
   <g id="patch_7">
    <path clip-path="url(#pe95c56c4b2)" d="M 169.330674 98.269808 
Q 223.200193 161.11758 276.342105 223.116478 
" style="fill:none;stroke:#000000;stroke-linecap:round;"/>
    <path clip-path="url(#pe95c56c4b2)" d="M 275.257453 218.777869 
L 276.342105 223.116478 
L 272.220427 221.381035 
L 275.257453 218.777869 
z
" style="stroke:#000000;stroke-linecap:round;"/>
   </g>
   <g id="patch_8">
    <path clip-path="url(#pe95c56c4b2)" d="M 288.829237 38.31684 
Q 342.210005 91.697608 394.800203 144.287807 
" style="fill:none;stroke:#000000;stroke-linecap:round;"/>
    <path clip-path="url(#pe95c56c4b2)" d="M 393.38599 140.045166 
L 394.800203 144.287807 
L 390.557563 142.873593 
L 393.38599 140.045166 
z
" style="stroke:#000000;stroke-linecap:round;"/>
   </g>
   <g id="patch_9">
    <path clip-path="url(#pe95c56c4b2)" d="M 289.913343 76.667297 
Q 342.211676 111.532853 393.57975 145.778235 
" style="fill:none;stroke:#000000;stroke-linecap:round;"/>
    <path clip-path="url(#pe95c56c4b2)" d="M 391.360949 141.895334 
L 393.57975 145.778235 
L 389.142148 145.223535 
L 391.360949 141.895334 
z
" style="stroke:#000000;stroke-linecap:round;"/>
   </g>
   <g id="patch_10">
    <path clip-path="url(#pe95c56c4b2)" d="M 290.922995 114.2702 
Q 342.211442 131.366348 392.439229 148.108944 
" style="fill:none;stroke:#000000;stroke-linecap:round;"/>
    <path clip-path="url(#pe95c56c4b2)" d="M 389.276951 144.946666 
L 392.439229 148.108944 
L 388.01204 148.7414 
L 389.276951 144.946666 
z
" style="stroke:#000000;stroke-linecap:round;"/>
   </g>
   <g id="patch_11">
    <path clip-path="url(#pe95c56c4b2)" d="M 291.36608 151.2 
Q 342.210314 151.2 391.936514 151.2 
" style="fill:none;stroke:#000000;stroke-linecap:round;"/>
    <path clip-path="url(#pe95c56c4b2)" d="M 387.936514 149.2 
L 391.936514 151.2 
L 387.936514 153.2 
L 387.936514 149.2 
z
" style="stroke:#000000;stroke-linecap:round;"/>
   </g>
   <g id="patch_12">
    <path clip-path="url(#pe95c56c4b2)" d="M 290.922995 188.1298 
Q 342.211442 171.033652 392.439229 154.291056 
" style="fill:none;stroke:#000000;stroke-linecap:round;"/>
    <path clip-path="url(#pe95c56c4b2)" d="M 388.01204 153.6586 
L 392.439229 154.291056 
L 389.276951 157.453334 
L 388.01204 153.6586 
z
" style="stroke:#000000;stroke-linecap:round;"/>
   </g>
   <g id="patch_13">
    <path clip-path="url(#pe95c56c4b2)" d="M 289.913343 225.732703 
Q 342.211676 190.867147 393.57975 156.621765 
" style="fill:none;stroke:#000000;stroke-linecap:round;"/>
    <path clip-path="url(#pe95c56c4b2)" d="M 389.142148 157.176465 
L 393.57975 156.621765 
L 391.360949 160.504666 
L 389.142148 157.176465 
z
" style="stroke:#000000;stroke-linecap:round;"/>
   </g>
   <g id="patch_14">
    <path clip-path="url(#pe95c56c4b2)" d="M 172.241597 129.941001 
Q 223.20006 121.447924 273.055701 113.13865 
" style="fill:none;stroke:#000000;stroke-linecap:round;"/>
    <path clip-path="url(#pe95c56c4b2)" d="M 268.781327 111.823458 
L 273.055701 113.13865 
L 269.438923 115.769034 
L 268.781327 111.823458 
z
" style="stroke:#000000;stroke-linecap:round;"/>
   </g>
   <g id="patch_15">
    <path clip-path="url(#pe95c56c4b2)" d="M 172.241597 132.789577 
Q 223.20006 141.282655 273.055701 149.591928 
" style="fill:none;stroke:#000000;stroke-linecap:round;"/>
    <path clip-path="url(#pe95c56c4b2)" d="M 269.438923 146.961544 
L 273.055701 149.591928 
L 268.781327 150.90712 
L 269.438923 146.961544 
z
" style="stroke:#000000;stroke-linecap:round;"/>
   </g>
   <g id="patch_16">
    <path clip-path="url(#pe95c56c4b2)" d="M 171.442591 135.238651 
Q 223.200871 161.117791 273.95915 186.49693 
" style="fill:none;stroke:#000000;stroke-linecap:round;"/>
    <path clip-path="url(#pe95c56c4b2)" d="M 271.275868 182.919222 
L 273.95915 186.49693 
L 269.487014 186.49693 
L 271.275868 182.919222 
z
" style="stroke:#000000;stroke-linecap:round;"/>
   </g>
   <g id="patch_17">
    <path clip-path="url(#pe95c56c4b2)" d="M 172.241597 172.458999 
Q 223.20006 180.952076 273.055701 189.26135 
" style="fill:none;stroke:#000000;stroke-linecap:round;"/>
    <path clip-path="url(#pe95c56c4b2)" d="M 269.438923 186.630966 
L 273.055701 189.26135 
L 268.781327 190.576542 
L 269.438923 186.630966 
z
" style="stroke:#000000;stroke-linecap:round;"/>
   </g>
   <g id="patch_18">
    <path clip-path="url(#pe95c56c4b2)" d="M 288.829237 264.08316 
Q 342.210005 210.702392 394.800203 158.112193 
" style="fill:none;stroke:#000000;stroke-linecap:round;"/>
    <path clip-path="url(#pe95c56c4b2)" d="M 390.557563 159.526407 
L 394.800203 158.112193 
L 393.38599 162.354834 
L 390.557563 159.526407 
z
" style="stroke:#000000;stroke-linecap:round;"/>
   </g>
   <g id="patch_19">
    <path clip-path="url(#pe95c56c4b2)" d="M 52.434327 147.326638 
Q 104.192606 121.447499 154.950886 96.068359 
" style="fill:none;stroke:#000000;stroke-linecap:round;"/>
    <path clip-path="url(#pe95c56c4b2)" d="M 150.47875 96.068359 
L 154.950886 96.068359 
L 152.267604 99.646068 
L 150.47875 96.068359 
z
" style="stroke:#000000;stroke-linecap:round;"/>
   </g>
   <g id="patch_20">
    <path clip-path="url(#pe95c56c4b2)" d="M 53.233332 149.775712 
Q 104.191795 141.282635 154.047436 132.973361 
" style="fill:none;stroke:#000000;stroke-linecap:round;"/>
    <path clip-path="url(#pe95c56c4b2)" d="M 149.773063 131.658169 
L 154.047436 132.973361 
L 150.430659 135.603745 
L 149.773063 131.658169 
z
" style="stroke:#000000;stroke-linecap:round;"/>
   </g>
   <g id="patch_21">
    <path clip-path="url(#pe95c56c4b2)" d="M 53.233332 152.624288 
Q 104.191795 161.117365 154.047436 169.426639 
" style="fill:none;stroke:#000000;stroke-linecap:round;"/>
    <path clip-path="url(#pe95c56c4b2)" d="M 150.430659 166.796255 
L 154.047436 169.426639 
L 149.773063 170.741831 
L 150.430659 166.796255 
z
" style="stroke:#000000;stroke-linecap:round;"/>
   </g>
   <g id="patch_22">
    <path clip-path="url(#pe95c56c4b2)" d="M 52.434327 155.073362 
Q 104.192606 180.952501 154.950886 206.331641 
" style="fill:none;stroke:#000000;stroke-linecap:round;"/>
    <path clip-path="url(#pe95c56c4b2)" d="M 152.267604 202.753932 
L 154.950886 206.331641 
L 150.47875 206.331641 
L 152.267604 202.753932 
z
" style="stroke:#000000;stroke-linecap:round;"/>
   </g>
   <g id="patch_23">
    <path clip-path="url(#pe95c56c4b2)" d="M 171.442591 87.822506 
Q 223.200871 61.943366 268.95915 39.064227 
" style="fill:none;stroke:#008000;stroke-linecap:round;stroke-opacity:0.5;stroke-width:6;"/>
    <path clip-path="url(#pe95c56c4b2)" d="M 264.487014 39.064227 
L 268.95915 39.064227 
L 266.275868 42.641935 
L 264.487014 39.064227 
z
" style="fill:#008000;fill-opacity:0.5;stroke:#008000;stroke-linecap:round;stroke-opacity:0.5;stroke-width:6;"/>
   </g>
   <g id="patch_24">
    <path clip-path="url(#pe95c56c4b2)" d="M 172.241597 90.27158 
Q 223.20006 81.778502 267.541591 74.388247 
" style="fill:none;stroke:#008000;stroke-linecap:round;stroke-opacity:0.5;stroke-width:6;"/>
    <path clip-path="url(#pe95c56c4b2)" d="M 263.267218 73.073055 
L 267.541591 74.388247 
L 263.924814 77.018631 
L 263.267218 73.073055 
z
" style="fill:#008000;fill-opacity:0.5;stroke:#008000;stroke-linecap:round;stroke-opacity:0.5;stroke-width:6;"/>
   </g>
   <g id="patch_25">
    <path clip-path="url(#pe95c56c4b2)" d="M 169.330674 98.269808 
Q 223.200193 161.11758 272.704071 218.872105 
" style="fill:none;stroke:#008000;stroke-linecap:round;stroke-opacity:0.5;stroke-width:6;"/>
    <path clip-path="url(#pe95c56c4b2)" d="M 271.619419 214.533496 
L 272.704071 218.872105 
L 268.582392 217.136661 
L 271.619419 214.533496 
z
" style="fill:#008000;fill-opacity:0.5;stroke:#008000;stroke-linecap:round;stroke-opacity:0.5;stroke-width:6;"/>
   </g>
   <g id="patch_26">
    <path clip-path="url(#pe95c56c4b2)" d="M 288.829237 38.31684 
Q 342.210005 91.697608 390.847356 140.33496 
" style="fill:none;stroke:#008000;stroke-linecap:round;stroke-opacity:0.5;stroke-width:6;"/>
    <path clip-path="url(#pe95c56c4b2)" d="M 389.433143 136.092319 
L 390.847356 140.33496 
L 386.604716 138.920746 
L 389.433143 136.092319 
z
" style="fill:#008000;fill-opacity:0.5;stroke:#008000;stroke-linecap:round;stroke-opacity:0.5;stroke-width:6;"/>
   </g>
   <g id="patch_27">
    <path clip-path="url(#pe95c56c4b2)" d="M 289.913343 76.667297 
Q 342.211676 111.532853 388.928447 142.677367 
" style="fill:none;stroke:#008000;stroke-linecap:round;stroke-opacity:0.5;stroke-width:6;"/>
    <path clip-path="url(#pe95c56c4b2)" d="M 386.709646 138.794466 
L 388.928447 142.677367 
L 384.490845 142.122667 
L 386.709646 138.794466 
z
" style="fill:#008000;fill-opacity:0.5;stroke:#008000;stroke-linecap:round;stroke-opacity:0.5;stroke-width:6;"/>
   </g>
   <g id="patch_28">
    <path clip-path="url(#pe95c56c4b2)" d="M 290.922995 114.2702 
Q 342.211442 131.366348 387.135928 146.341177 
" style="fill:none;stroke:#008000;stroke-linecap:round;stroke-opacity:0.5;stroke-width:6;"/>
    <path clip-path="url(#pe95c56c4b2)" d="M 383.97365 143.178899 
L 387.135928 146.341177 
L 382.708739 146.973633 
L 383.97365 143.178899 
z
" style="fill:#008000;fill-opacity:0.5;stroke:#008000;stroke-linecap:round;stroke-opacity:0.5;stroke-width:6;"/>
   </g>
   <g id="patch_29">
    <path clip-path="url(#pe95c56c4b2)" d="M 291.36608 151.2 
Q 342.210314 151.2 386.346344 151.2 
" style="fill:none;stroke:#008000;stroke-linecap:round;stroke-opacity:0.5;stroke-width:6;"/>
    <path clip-path="url(#pe95c56c4b2)" d="M 382.346344 149.2 
L 386.346344 151.2 
L 382.346344 153.2 
L 382.346344 149.2 
z
" style="fill:#008000;fill-opacity:0.5;stroke:#008000;stroke-linecap:round;stroke-opacity:0.5;stroke-width:6;"/>
   </g>
   <g id="patch_30">
    <path clip-path="url(#pe95c56c4b2)" d="M 290.922995 188.1298 
Q 342.211442 171.033652 387.135928 156.058823 
" style="fill:none;stroke:#008000;stroke-linecap:round;stroke-opacity:0.5;stroke-width:6;"/>
    <path clip-path="url(#pe95c56c4b2)" d="M 382.708739 155.426367 
L 387.135928 156.058823 
L 383.97365 159.221101 
L 382.708739 155.426367 
z
" style="fill:#008000;fill-opacity:0.5;stroke:#008000;stroke-linecap:round;stroke-opacity:0.5;stroke-width:6;"/>
   </g>
   <g id="patch_31">
    <path clip-path="url(#pe95c56c4b2)" d="M 289.913343 225.732703 
Q 342.211676 190.867147 388.928447 159.722633 
" style="fill:none;stroke:#008000;stroke-linecap:round;stroke-opacity:0.5;stroke-width:6;"/>
    <path clip-path="url(#pe95c56c4b2)" d="M 384.490845 160.277333 
L 388.928447 159.722633 
L 386.709646 163.605534 
L 384.490845 160.277333 
z
" style="fill:#008000;fill-opacity:0.5;stroke:#008000;stroke-linecap:round;stroke-opacity:0.5;stroke-width:6;"/>
   </g>
   <g id="patch_32">
    <path clip-path="url(#pe95c56c4b2)" d="M 172.241597 129.941001 
Q 223.20006 121.447924 267.541591 114.057669 
" style="fill:none;stroke:#008000;stroke-linecap:round;stroke-opacity:0.5;stroke-width:6;"/>
    <path clip-path="url(#pe95c56c4b2)" d="M 263.267218 112.742477 
L 267.541591 114.057669 
L 263.924814 116.688052 
L 263.267218 112.742477 
z
" style="fill:#008000;fill-opacity:0.5;stroke:#008000;stroke-linecap:round;stroke-opacity:0.5;stroke-width:6;"/>
   </g>
   <g id="patch_33">
    <path clip-path="url(#pe95c56c4b2)" d="M 172.241597 132.789577 
Q 223.20006 141.282655 267.541591 148.67291 
" style="fill:none;stroke:#008000;stroke-linecap:round;stroke-opacity:0.5;stroke-width:6;"/>
    <path clip-path="url(#pe95c56c4b2)" d="M 263.924814 146.042526 
L 267.541591 148.67291 
L 263.267218 149.988102 
L 263.924814 146.042526 
z
" style="fill:#008000;fill-opacity:0.5;stroke:#008000;stroke-linecap:round;stroke-opacity:0.5;stroke-width:6;"/>
   </g>
   <g id="patch_34">
    <path clip-path="url(#pe95c56c4b2)" d="M 172.241597 172.458999 
Q 223.20006 180.952076 267.541591 188.342331 
" style="fill:none;stroke:#008000;stroke-linecap:round;stroke-opacity:0.5;stroke-width:6;"/>
    <path clip-path="url(#pe95c56c4b2)" d="M 263.924814 185.711948 
L 267.541591 188.342331 
L 263.267218 189.657523 
L 263.924814 185.711948 
z
" style="fill:#008000;fill-opacity:0.5;stroke:#008000;stroke-linecap:round;stroke-opacity:0.5;stroke-width:6;"/>
   </g>
   <g id="patch_35">
    <path clip-path="url(#pe95c56c4b2)" d="M 52.434327 147.326638 
Q 104.192606 121.447499 149.950886 98.568359 
" style="fill:none;stroke:#008000;stroke-linecap:round;stroke-opacity:0.5;stroke-width:6;"/>
    <path clip-path="url(#pe95c56c4b2)" d="M 145.47875 98.568359 
L 149.950886 98.568359 
L 147.267604 102.146068 
L 145.47875 98.568359 
z
" style="fill:#008000;fill-opacity:0.5;stroke:#008000;stroke-linecap:round;stroke-opacity:0.5;stroke-width:6;"/>
   </g>
   <g id="patch_36">
    <path clip-path="url(#pe95c56c4b2)" d="M 53.233332 149.775712 
Q 104.191795 141.282635 148.533327 133.892379 
" style="fill:none;stroke:#008000;stroke-linecap:round;stroke-opacity:0.5;stroke-width:6;"/>
    <path clip-path="url(#pe95c56c4b2)" d="M 144.258953 132.577188 
L 148.533327 133.892379 
L 144.916549 136.522763 
L 144.258953 132.577188 
z
" style="fill:#008000;fill-opacity:0.5;stroke:#008000;stroke-linecap:round;stroke-opacity:0.5;stroke-width:6;"/>
   </g>
   <g id="patch_37">
    <path clip-path="url(#pe95c56c4b2)" d="M 53.233332 152.624288 
Q 104.191795 161.117365 148.533327 168.507621 
" style="fill:none;stroke:#008000;stroke-linecap:round;stroke-opacity:0.5;stroke-width:6;"/>
    <path clip-path="url(#pe95c56c4b2)" d="M 144.916549 165.877237 
L 148.533327 168.507621 
L 144.258953 169.822812 
L 144.916549 165.877237 
z
" style="fill:#008000;fill-opacity:0.5;stroke:#008000;stroke-linecap:round;stroke-opacity:0.5;stroke-width:6;"/>
   </g>
   <g id="text_1">
    <g id="patch_38">
     <path clip-path="url(#pe95c56c4b2)" d="M 223.860339 70.377971 
L 229.551132 67.532574 
Q 232.234413 66.190933 230.892773 63.507652 
L 226.564584 54.851274 
Q 225.222943 52.167992 222.539661 53.509633 
L 216.848868 56.355029 
Q 214.165587 57.69667 215.507227 60.379952 
L 219.835416 69.03633 
Q 221.177057 71.719611 223.860339 70.377971 
z
" style="fill:#ffffff;stroke:#ffffff;stroke-linejoin:miter;"/>
    </g>
    <g clip-path="url(#pe95c56c4b2)">
     <!-- 1 -->
     <defs>
      <path d="M 12.40625 8.296875 
L 28.515625 8.296875 
L 28.515625 63.921875 
L 10.984375 60.40625 
L 10.984375 69.390625 
L 28.421875 72.90625 
L 38.28125 72.90625 
L 38.28125 8.296875 
L 54.390625 8.296875 
L 54.390625 0 
L 12.40625 0 
z
" id="DejaVuSans-49"/>
     </defs>
     <g transform="translate(221.588634 65.83456)rotate(-26.565051)scale(0.1 -0.1)">
      <use xlink:href="#DejaVuSans-49"/>
     </g>
    </g>
   </g>
   <g id="text_2">
    <g id="patch_39">
     <path clip-path="url(#pe95c56c4b2)" d="M 221.350768 90.03391 
L 227.6267 88.987922 
Q 230.585881 88.494725 230.092684 85.535543 
L 228.50161 75.989099 
Q 228.008414 73.029918 225.049232 73.523114 
L 218.7733 74.569103 
Q 215.814119 75.0623 216.307316 78.021482 
L 217.89839 87.567925 
Q 218.391586 90.527107 221.350768 90.03391 
z
" style="fill:#ffffff;stroke:#ffffff;stroke-linejoin:miter;"/>
    </g>
    <g clip-path="url(#pe95c56c4b2)">
     <!-- 1 -->
     <g transform="translate(220.515673 85.023337)rotate(-9.462322)scale(0.1 -0.1)">
      <use xlink:href="#DejaVuSans-49"/>
     </g>
    </g>
   </g>
   <g id="text_3">
    <g id="patch_40">
     <path clip-path="url(#pe95c56c4b2)" d="M 218.7733 108.822632 
L 225.049232 109.868621 
Q 228.008414 110.361818 228.50161 107.402636 
L 230.092684 97.856193 
Q 230.585881 94.897011 227.6267 94.403814 
L 221.350768 93.357825 
Q 218.391586 92.864628 217.89839 95.82381 
L 216.307316 105.370254 
Q 215.814119 108.329436 218.7733 108.822632 
z
" style="fill:#ffffff;stroke:#ffffff;stroke-linejoin:miter;"/>
    </g>
    <g clip-path="url(#pe95c56c4b2)">
     <!-- 1 -->
     <g transform="translate(219.608396 103.81206)rotate(-350.537678)scale(0.1 -0.1)">
      <use xlink:href="#DejaVuSans-49"/>
     </g>
    </g>
   </g>
   <g id="text_4">
    <g id="patch_41">
     <path clip-path="url(#pe95c56c4b2)" d="M 216.848868 127.036706 
L 222.539661 129.882103 
Q 225.222943 131.223744 226.564584 128.540462 
L 230.892773 119.884084 
Q 232.234413 117.200802 229.551132 115.859161 
L 223.860339 113.013765 
Q 221.177057 111.672124 219.835416 114.355406 
L 215.507227 123.011784 
Q 214.165587 125.695065 216.848868 127.036706 
z
" style="fill:#ffffff;stroke:#ffffff;stroke-linejoin:miter;"/>
    </g>
    <g clip-path="url(#pe95c56c4b2)">
     <!-- 1 -->
     <g transform="translate(219.120573 122.493296)rotate(-333.434949)scale(0.1 -0.1)">
      <use xlink:href="#DejaVuSans-49"/>
     </g>
    </g>
   </g>
   <g id="text_5">
    <g id="patch_42">
     <path clip-path="url(#pe95c56c4b2)" d="M 215.737651 145.268193 
L 220.625458 149.341366 
Q 222.930122 151.261919 224.850675 148.957255 
L 231.04646 141.522314 
Q 232.967013 139.21765 230.662349 137.297097 
L 225.774542 133.223923 
Q 223.469878 131.30337 221.549325 133.608034 
L 215.35354 141.042976 
Q 213.432987 143.347639 215.737651 145.268193 
z
" style="fill:#ffffff;stroke:#ffffff;stroke-linejoin:miter;"/>
    </g>
    <g clip-path="url(#pe95c56c4b2)">
     <!-- 1 -->
     <g transform="translate(218.989587 141.365869)rotate(-320.194429)scale(0.1 -0.1)">
      <use xlink:href="#DejaVuSans-49"/>
     </g>
    </g>
   </g>
   <g id="text_6">
    <g id="patch_43">
     <path clip-path="url(#pe95c56c4b2)" d="M 215.17781 163.803565 
L 219.31847 168.634335 
Q 221.270844 170.912104 223.548614 168.95973 
L 230.896794 162.66129 
Q 233.174564 160.708916 231.22219 158.431146 
L 227.08153 153.600376 
Q 225.129156 151.322606 222.851386 153.27498 
L 215.503206 159.573421 
Q 213.225436 161.525795 215.17781 163.803565 
z
" style="fill:#ffffff;stroke:#ffffff;stroke-linejoin:miter;"/>
    </g>
    <g clip-path="url(#pe95c56c4b2)">
     <!-- 1 -->
     <g transform="translate(219.034596 160.497748)rotate(-310.601295)scale(0.1 -0.1)">
      <use xlink:href="#DejaVuSans-49"/>
     </g>
    </g>
   </g>
   <g id="text_7">
    <g id="patch_44">
     <path clip-path="url(#pe95c56c4b2)" d="M 334.415727 94.989439 
L 338.914694 99.488405 
Q 341.036014 101.609726 343.157334 99.488405 
L 350.000802 92.644938 
Q 352.122123 90.523617 350.000802 88.402297 
L 345.501835 83.90333 
Q 343.380515 81.78201 341.259195 83.90333 
L 334.415727 90.746798 
Q 332.294406 92.868118 334.415727 94.989439 
z
" style="fill:#ffffff;stroke:#ffffff;stroke-linejoin:miter;"/>
    </g>
    <g clip-path="url(#pe95c56c4b2)">
     <!-- 1 -->
     <g transform="translate(338.007608 91.397557)rotate(-315)scale(0.1 -0.1)">
      <use xlink:href="#DejaVuSans-49"/>
     </g>
    </g>
   </g>
   <g id="text_8">
    <g id="patch_45">
     <path clip-path="url(#pe95c56c4b2)" d="M 335.212975 116.288433 
L 340.506895 119.817713 
Q 343.003046 121.481813 344.667146 118.985662 
L 350.035604 110.932976 
Q 351.699705 108.436825 349.203554 106.772724 
L 343.909634 103.243444 
Q 341.413483 101.579344 339.749382 104.075495 
L 334.380925 112.128181 
Q 332.716824 114.624332 335.212975 116.288433 
z
" style="fill:#ffffff;stroke:#ffffff;stroke-linejoin:miter;"/>
    </g>
    <g clip-path="url(#pe95c56c4b2)">
     <!-- 1 -->
     <g transform="translate(338.030679 112.061877)rotate(-326.309932)scale(0.1 -0.1)">
      <use xlink:href="#DejaVuSans-49"/>
     </g>
    </g>
   </g>
   <g id="text_9">
    <g id="patch_46">
     <path clip-path="url(#pe95c56c4b2)" d="M 336.711336 137.796077 
L 342.747334 139.808077 
Q 345.593384 140.75676 346.542067 137.91071 
L 349.602559 128.729234 
Q 350.551242 125.883184 347.705192 124.934501 
L 341.669195 122.922502 
Q 338.823145 121.973819 337.874462 124.819869 
L 334.81397 134.001344 
Q 333.865287 136.847394 336.711336 137.796077 
z
" style="fill:#ffffff;stroke:#ffffff;stroke-linejoin:miter;"/>
    </g>
    <g clip-path="url(#pe95c56c4b2)">
     <!-- 1 -->
     <g transform="translate(338.317675 132.977063)rotate(-341.565051)scale(0.1 -0.1)">
      <use xlink:href="#DejaVuSans-49"/>
     </g>
    </g>
   </g>
   <g id="text_10">
    <g id="patch_47">
     <path clip-path="url(#pe95c56c4b2)" d="M 339.027014 159.039062 
L 345.389514 159.039062 
Q 348.389514 159.039062 348.389514 156.039062 
L 348.389514 146.360938 
Q 348.389514 143.360938 345.389514 143.360938 
L 339.027014 143.360938 
Q 336.027014 143.360938 336.027014 146.360938 
L 336.027014 156.039062 
Q 336.027014 159.039062 339.027014 159.039062 
z
" style="fill:#ffffff;stroke:#ffffff;stroke-linejoin:miter;"/>
    </g>
    <g clip-path="url(#pe95c56c4b2)">
     <!-- 1 -->
     <g transform="translate(339.027014 153.959375)scale(0.1 -0.1)">
      <use xlink:href="#DejaVuSans-49"/>
     </g>
    </g>
   </g>
   <g id="text_11">
    <g id="patch_48">
     <path clip-path="url(#pe95c56c4b2)" d="M 341.669195 179.477498 
L 347.705192 177.465499 
Q 350.551242 176.516816 349.602559 173.670766 
L 346.542067 164.48929 
Q 345.593384 161.64324 342.747334 162.591923 
L 336.711336 164.603923 
Q 333.865287 165.552606 334.81397 168.398656 
L 337.874462 177.580131 
Q 338.823145 180.426181 341.669195 179.477498 
z
" style="fill:#ffffff;stroke:#ffffff;stroke-linejoin:miter;"/>
    </g>
    <g clip-path="url(#pe95c56c4b2)">
     <!-- 1 -->
     <g transform="translate(340.062857 174.658483)rotate(-18.434949)scale(0.1 -0.1)">
      <use xlink:href="#DejaVuSans-49"/>
     </g>
    </g>
   </g>
   <g id="text_12">
    <g id="patch_49">
     <path clip-path="url(#pe95c56c4b2)" d="M 343.909634 199.156556 
L 349.203554 195.627276 
Q 351.699705 193.963175 350.035604 191.467024 
L 344.667146 183.414338 
Q 343.003046 180.918187 340.506895 182.582287 
L 335.212975 186.111567 
Q 332.716824 187.775668 334.380925 190.271819 
L 339.749382 198.324505 
Q 341.413483 200.820656 343.909634 199.156556 
z
" style="fill:#ffffff;stroke:#ffffff;stroke-linejoin:miter;"/>
    </g>
    <g clip-path="url(#pe95c56c4b2)">
     <!-- 1 -->
     <g transform="translate(341.09193 194.93)rotate(-33.690068)scale(0.1 -0.1)">
      <use xlink:href="#DejaVuSans-49"/>
     </g>
    </g>
   </g>
   <g id="text_13">
    <g id="patch_50">
     <path clip-path="url(#pe95c56c4b2)" d="M 221.350768 129.703332 
L 227.6267 128.657343 
Q 230.585881 128.164146 230.092684 125.204964 
L 228.50161 115.658521 
Q 228.008414 112.699339 225.049232 113.192536 
L 218.7733 114.238525 
Q 215.814119 114.731722 216.307316 117.690903 
L 217.89839 127.237347 
Q 218.391586 130.196529 221.350768 129.703332 
z
" style="fill:#ffffff;stroke:#ffffff;stroke-linejoin:miter;"/>
    </g>
    <g clip-path="url(#pe95c56c4b2)">
     <!-- 1 -->
     <g transform="translate(220.515673 124.692759)rotate(-9.462322)scale(0.1 -0.1)">
      <use xlink:href="#DejaVuSans-49"/>
     </g>
    </g>
   </g>
   <g id="text_14">
    <g id="patch_51">
     <path clip-path="url(#pe95c56c4b2)" d="M 218.7733 148.492054 
L 225.049232 149.538043 
Q 228.008414 150.031239 228.50161 147.072058 
L 230.092684 137.525614 
Q 230.585881 134.566432 227.6267 134.073235 
L 221.350768 133.027247 
Q 218.391586 132.53405 217.89839 135.493232 
L 216.307316 145.039675 
Q 215.814119 147.998857 218.7733 148.492054 
z
" style="fill:#ffffff;stroke:#ffffff;stroke-linejoin:miter;"/>
    </g>
    <g clip-path="url(#pe95c56c4b2)">
     <!-- 1 -->
     <g transform="translate(219.608396 143.481481)rotate(-350.537678)scale(0.1 -0.1)">
      <use xlink:href="#DejaVuSans-49"/>
     </g>
    </g>
   </g>
   <g id="text_15">
    <g id="patch_52">
     <path clip-path="url(#pe95c56c4b2)" d="M 216.848868 166.706128 
L 222.539661 169.551524 
Q 225.222943 170.893165 226.564584 168.209883 
L 230.892773 159.553505 
Q 232.234413 156.870224 229.551132 155.528583 
L 223.860339 152.683186 
Q 221.177057 151.341546 219.835416 154.024827 
L 215.507227 162.681205 
Q 214.165587 165.364487 216.848868 166.706128 
z
" style="fill:#ffffff;stroke:#ffffff;stroke-linejoin:miter;"/>
    </g>
    <g clip-path="url(#pe95c56c4b2)">
     <!-- 1 -->
     <g transform="translate(219.120573 162.162717)rotate(-333.434949)scale(0.1 -0.1)">
      <use xlink:href="#DejaVuSans-49"/>
     </g>
    </g>
   </g>
   <g id="text_16">
    <g id="patch_53">
     <path clip-path="url(#pe95c56c4b2)" d="M 218.7733 188.161475 
L 225.049232 189.207464 
Q 228.008414 189.700661 228.50161 186.741479 
L 230.092684 177.195036 
Q 230.585881 174.235854 227.6267 173.742657 
L 221.350768 172.696668 
Q 218.391586 172.203471 217.89839 175.162653 
L 216.307316 184.709097 
Q 215.814119 187.668278 218.7733 188.161475 
z
" style="fill:#ffffff;stroke:#ffffff;stroke-linejoin:miter;"/>
    </g>
    <g clip-path="url(#pe95c56c4b2)">
     <!-- 1 -->
     <g transform="translate(219.608396 183.150903)rotate(-350.537678)scale(0.1 -0.1)">
      <use xlink:href="#DejaVuSans-49"/>
     </g>
    </g>
   </g>
   <g id="text_17">
    <g id="patch_54">
     <path clip-path="url(#pe95c56c4b2)" d="M 345.501835 218.49667 
L 350.000802 213.997703 
Q 352.122123 211.876383 350.000802 209.755062 
L 343.157334 202.911595 
Q 341.036014 200.790274 338.914694 202.911595 
L 334.415727 207.410561 
Q 332.294406 209.531882 334.415727 211.653202 
L 341.259195 218.49667 
Q 343.380515 220.61799 345.501835 218.49667 
z
" style="fill:#ffffff;stroke:#ffffff;stroke-linejoin:miter;"/>
    </g>
    <g clip-path="url(#pe95c56c4b2)">
     <!-- 1 -->
     <g transform="translate(341.909954 214.904788)rotate(-45)scale(0.1 -0.1)">
      <use xlink:href="#DejaVuSans-49"/>
     </g>
    </g>
   </g>
   <g id="text_18">
    <g id="patch_55">
     <path clip-path="url(#pe95c56c4b2)" d="M 104.852074 129.882103 
L 110.542867 127.036706 
Q 113.226149 125.695065 111.884508 123.011784 
L 107.556319 114.355406 
Q 106.214678 111.672124 103.531397 113.013765 
L 97.840604 115.859161 
Q 95.157322 117.200802 96.498963 119.884084 
L 100.827152 128.540462 
Q 102.168793 131.223744 104.852074 129.882103 
z
" style="fill:#ffffff;stroke:#ffffff;stroke-linejoin:miter;"/>
    </g>
    <g clip-path="url(#pe95c56c4b2)">
     <!-- 3 -->
     <defs>
      <path d="M 40.578125 39.3125 
Q 47.65625 37.796875 51.625 33 
Q 55.609375 28.21875 55.609375 21.1875 
Q 55.609375 10.40625 48.1875 4.484375 
Q 40.765625 -1.421875 27.09375 -1.421875 
Q 22.515625 -1.421875 17.65625 -0.515625 
Q 12.796875 0.390625 7.625 2.203125 
L 7.625 11.71875 
Q 11.71875 9.328125 16.59375 8.109375 
Q 21.484375 6.890625 26.8125 6.890625 
Q 36.078125 6.890625 40.9375 10.546875 
Q 45.796875 14.203125 45.796875 21.1875 
Q 45.796875 27.640625 41.28125 31.265625 
Q 36.765625 34.90625 28.71875 34.90625 
L 20.21875 34.90625 
L 20.21875 43.015625 
L 29.109375 43.015625 
Q 36.375 43.015625 40.234375 45.921875 
Q 44.09375 48.828125 44.09375 54.296875 
Q 44.09375 59.90625 40.109375 62.90625 
Q 36.140625 65.921875 28.71875 65.921875 
Q 24.65625 65.921875 20.015625 65.03125 
Q 15.375 64.15625 9.8125 62.3125 
L 9.8125 71.09375 
Q 15.4375 72.65625 20.34375 73.4375 
Q 25.25 74.21875 29.59375 74.21875 
Q 40.828125 74.21875 47.359375 69.109375 
Q 53.90625 64.015625 53.90625 55.328125 
Q 53.90625 49.265625 50.4375 45.09375 
Q 46.96875 40.921875 40.578125 39.3125 
z
" id="DejaVuSans-51"/>
     </defs>
     <g transform="translate(102.580369 125.338692)rotate(-26.565051)scale(0.1 -0.1)">
      <use xlink:href="#DejaVuSans-51"/>
     </g>
    </g>
   </g>
   <g id="text_19">
    <g id="patch_56">
     <path clip-path="url(#pe95c56c4b2)" d="M 102.342504 149.538043 
L 108.618435 148.492054 
Q 111.577617 147.998857 111.08442 145.039675 
L 109.493346 135.493232 
Q 109.000149 132.53405 106.040967 133.027247 
L 99.765036 134.073235 
Q 96.805854 134.566432 97.299051 137.525614 
L 98.890125 147.072058 
Q 99.383322 150.031239 102.342504 149.538043 
z
" style="fill:#ffffff;stroke:#ffffff;stroke-linejoin:miter;"/>
    </g>
    <g clip-path="url(#pe95c56c4b2)">
     <!-- 2 -->
     <defs>
      <path d="M 19.1875 8.296875 
L 53.609375 8.296875 
L 53.609375 0 
L 7.328125 0 
L 7.328125 8.296875 
Q 12.9375 14.109375 22.625 23.890625 
Q 32.328125 33.6875 34.8125 36.53125 
Q 39.546875 41.84375 41.421875 45.53125 
Q 43.3125 49.21875 43.3125 52.78125 
Q 43.3125 58.59375 39.234375 62.25 
Q 35.15625 65.921875 28.609375 65.921875 
Q 23.96875 65.921875 18.8125 64.3125 
Q 13.671875 62.703125 7.8125 59.421875 
L 7.8125 69.390625 
Q 13.765625 71.78125 18.9375 73 
Q 24.125 74.21875 28.421875 74.21875 
Q 39.75 74.21875 46.484375 68.546875 
Q 53.21875 62.890625 53.21875 53.421875 
Q 53.21875 48.921875 51.53125 44.890625 
Q 49.859375 40.875 45.40625 35.40625 
Q 44.1875 33.984375 37.640625 27.21875 
Q 31.109375 20.453125 19.1875 8.296875 
z
" id="DejaVuSans-50"/>
     </defs>
     <g transform="translate(101.507408 144.52747)rotate(-9.462322)scale(0.1 -0.1)">
      <use xlink:href="#DejaVuSans-50"/>
     </g>
    </g>
   </g>
   <g id="text_20">
    <g id="patch_57">
     <path clip-path="url(#pe95c56c4b2)" d="M 99.765036 168.326765 
L 106.040967 169.372753 
Q 109.000149 169.86595 109.493346 166.906768 
L 111.08442 157.360325 
Q 111.577617 154.401143 108.618435 153.907946 
L 102.342504 152.861957 
Q 99.383322 152.368761 98.890125 155.327942 
L 97.299051 164.874386 
Q 96.805854 167.833568 99.765036 168.326765 
z
" style="fill:#ffffff;stroke:#ffffff;stroke-linejoin:miter;"/>
    </g>
    <g clip-path="url(#pe95c56c4b2)">
     <!-- 1 -->
     <g transform="translate(100.600131 163.316192)rotate(-350.537678)scale(0.1 -0.1)">
      <use xlink:href="#DejaVuSans-49"/>
     </g>
    </g>
   </g>
   <g id="text_21">
    <g id="patch_58">
     <path clip-path="url(#pe95c56c4b2)" d="M 97.840604 186.540839 
L 103.531397 189.386235 
Q 106.214678 190.727876 107.556319 188.044594 
L 111.884508 179.388216 
Q 113.226149 176.704935 110.542867 175.363294 
L 104.852074 172.517897 
Q 102.168793 171.176256 100.827152 173.859538 
L 96.498963 182.515916 
Q 95.157322 185.199198 97.840604 186.540839 
z
" style="fill:#ffffff;stroke:#ffffff;stroke-linejoin:miter;"/>
    </g>
    <g clip-path="url(#pe95c56c4b2)">
     <!-- 4 -->
     <defs>
      <path d="M 37.796875 64.3125 
L 12.890625 25.390625 
L 37.796875 25.390625 
z
M 35.203125 72.90625 
L 47.609375 72.90625 
L 47.609375 25.390625 
L 58.015625 25.390625 
L 58.015625 17.1875 
L 47.609375 17.1875 
L 47.609375 0 
L 37.796875 0 
L 37.796875 17.1875 
L 4.890625 17.1875 
L 4.890625 26.703125 
z
" id="DejaVuSans-52"/>
     </defs>
     <g transform="translate(100.112309 181.997428)rotate(-333.434949)scale(0.1 -0.1)">
      <use xlink:href="#DejaVuSans-52"/>
     </g>
    </g>
   </g>
   <g id="PathCollection_1">
    <defs>
     <path d="M 0 8.660254 
C 2.296726 8.660254 4.499694 7.747755 6.123724 6.123724 
C 7.747755 4.499694 8.660254 2.296726 8.660254 0 
C 8.660254 -2.296726 7.747755 -4.499694 6.123724 -6.123724 
C 4.499694 -7.747755 2.296726 -8.660254 0 -8.660254 
C -2.296726 -8.660254 -4.499694 -7.747755 -6.123724 -6.123724 
C -7.747755 -4.499694 -8.660254 -2.296726 -8.660254 0 
C -8.660254 2.296726 -7.747755 4.499694 -6.123724 6.123724 
C -4.499694 7.747755 -2.296726 8.660254 0 8.660254 
z
" id="m94c7015aea" style="stroke:#1f78b4;"/>
    </defs>
    <g clip-path="url(#pe95c56c4b2)">
     <use style="fill:#1f78b4;stroke:#1f78b4;" x="163.695868" xlink:href="#m94c7015aea" y="91.695868"/>
     <use style="fill:#1f78b4;stroke:#1f78b4;" x="282.704132" xlink:href="#m94c7015aea" y="32.191736"/>
     <use style="fill:#1f78b4;stroke:#1f78b4;" x="282.704132" xlink:href="#m94c7015aea" y="71.861157"/>
     <use style="fill:#1f78b4;stroke:#1f78b4;" x="282.704132" xlink:href="#m94c7015aea" y="111.530579"/>
     <use style="fill:#1f78b4;stroke:#1f78b4;" x="282.704132" xlink:href="#m94c7015aea" y="151.2"/>
     <use style="fill:#1f78b4;stroke:#1f78b4;" x="282.704132" xlink:href="#m94c7015aea" y="190.869421"/>
     <use style="fill:#1f78b4;stroke:#1f78b4;" x="282.704132" xlink:href="#m94c7015aea" y="230.538843"/>
     <use style="fill:#1f78b4;stroke:#1f78b4;" x="163.695868" xlink:href="#m94c7015aea" y="131.365289"/>
     <use style="fill:#1f78b4;stroke:#1f78b4;" x="163.695868" xlink:href="#m94c7015aea" y="171.034711"/>
     <use style="fill:#1f78b4;stroke:#1f78b4;" x="163.695868" xlink:href="#m94c7015aea" y="210.704132"/>
     <use style="fill:#1f78b4;stroke:#1f78b4;" x="282.704132" xlink:href="#m94c7015aea" y="270.208264"/>
     <use style="fill:#1f78b4;stroke:#1f78b4;" x="44.687603" xlink:href="#m94c7015aea" y="151.2"/>
     <use style="fill:#1f78b4;stroke:#1f78b4;" x="401.712397" xlink:href="#m94c7015aea" y="151.2"/>
    </g>
   </g>
   <g id="text_22">
    <g clip-path="url(#pe95c56c4b2)">
     <!-- 1 -->
     <defs>
      <path d="M 11.71875 12.984375 
L 28.328125 12.984375 
L 28.328125 60.109375 
L 11.28125 56.59375 
L 11.28125 69.390625 
L 28.21875 72.90625 
L 46.09375 72.90625 
L 46.09375 12.984375 
L 62.703125 12.984375 
L 62.703125 0 
L 11.71875 0 
z
" id="DejaVuSans-Bold-49"/>
     </defs>
     <g transform="translate(159.52118 95.007118)scale(0.12 -0.12)">
      <use xlink:href="#DejaVuSans-Bold-49"/>
     </g>
    </g>
   </g>
   <g id="text_23">
    <g clip-path="url(#pe95c56c4b2)">
     <!-- A -->
     <defs>
      <path d="M 53.421875 13.28125 
L 24.03125 13.28125 
L 19.390625 0 
L 0.484375 0 
L 27.484375 72.90625 
L 49.90625 72.90625 
L 76.90625 0 
L 58.015625 0 
z
M 28.71875 26.8125 
L 48.6875 26.8125 
L 38.71875 55.8125 
z
" id="DejaVuSans-Bold-65"/>
     </defs>
     <g transform="translate(278.060695 35.502986)scale(0.12 -0.12)">
      <use xlink:href="#DejaVuSans-Bold-65"/>
     </g>
    </g>
   </g>
   <g id="text_24">
    <g clip-path="url(#pe95c56c4b2)">
     <!-- B -->
     <defs>
      <path d="M 38.375 44.671875 
Q 42.828125 44.671875 45.109375 46.625 
Q 47.40625 48.578125 47.40625 52.390625 
Q 47.40625 56.15625 45.109375 58.125 
Q 42.828125 60.109375 38.375 60.109375 
L 27.984375 60.109375 
L 27.984375 44.671875 
z
M 39.015625 12.796875 
Q 44.671875 12.796875 47.53125 15.1875 
Q 50.390625 17.578125 50.390625 22.40625 
Q 50.390625 27.15625 47.5625 29.515625 
Q 44.734375 31.890625 39.015625 31.890625 
L 27.984375 31.890625 
L 27.984375 12.796875 
z
M 56.5 39.015625 
Q 62.546875 37.25 65.859375 32.515625 
Q 69.1875 27.78125 69.1875 20.90625 
Q 69.1875 10.359375 62.0625 5.171875 
Q 54.9375 0 40.375 0 
L 9.1875 0 
L 9.1875 72.90625 
L 37.40625 72.90625 
Q 52.59375 72.90625 59.40625 68.3125 
Q 66.21875 63.71875 66.21875 53.609375 
Q 66.21875 48.296875 63.71875 44.5625 
Q 61.234375 40.828125 56.5 39.015625 
z
" id="DejaVuSans-Bold-66"/>
     </defs>
     <g transform="translate(278.131007 75.172407)scale(0.12 -0.12)">
      <use xlink:href="#DejaVuSans-Bold-66"/>
     </g>
    </g>
   </g>
   <g id="text_25">
    <g clip-path="url(#pe95c56c4b2)">
     <!-- C -->
     <defs>
      <path d="M 67 4 
Q 61.8125 1.3125 56.203125 -0.046875 
Q 50.59375 -1.421875 44.484375 -1.421875 
Q 26.265625 -1.421875 15.625 8.765625 
Q 4.984375 18.953125 4.984375 36.375 
Q 4.984375 53.859375 15.625 64.03125 
Q 26.265625 74.21875 44.484375 74.21875 
Q 50.59375 74.21875 56.203125 72.84375 
Q 61.8125 71.484375 67 68.796875 
L 67 53.71875 
Q 61.765625 57.28125 56.6875 58.9375 
Q 51.609375 60.59375 46 60.59375 
Q 35.9375 60.59375 30.171875 54.140625 
Q 24.421875 47.703125 24.421875 36.375 
Q 24.421875 25.09375 30.171875 18.640625 
Q 35.9375 12.203125 46 12.203125 
Q 51.609375 12.203125 56.6875 13.859375 
Q 61.765625 15.53125 67 19.09375 
z
" id="DejaVuSans-Bold-67"/>
     </defs>
     <g transform="translate(278.300695 114.841829)scale(0.12 -0.12)">
      <use xlink:href="#DejaVuSans-Bold-67"/>
     </g>
    </g>
   </g>
   <g id="text_26">
    <g clip-path="url(#pe95c56c4b2)">
     <!-- D -->
     <defs>
      <path d="M 27.984375 58.6875 
L 27.984375 14.203125 
L 34.71875 14.203125 
Q 46.234375 14.203125 52.3125 19.921875 
Q 58.40625 25.640625 58.40625 36.53125 
Q 58.40625 47.359375 52.34375 53.015625 
Q 46.296875 58.6875 34.71875 58.6875 
z
M 9.1875 72.90625 
L 29 72.90625 
Q 45.609375 72.90625 53.734375 70.53125 
Q 61.859375 68.171875 67.671875 62.5 
Q 72.796875 57.5625 75.28125 51.109375 
Q 77.78125 44.671875 77.78125 36.53125 
Q 77.78125 28.265625 75.28125 21.796875 
Q 72.796875 15.328125 67.671875 10.40625 
Q 61.8125 4.734375 53.609375 2.359375 
Q 45.40625 0 29 0 
L 9.1875 0 
z
" id="DejaVuSans-Bold-68"/>
     </defs>
     <g transform="translate(277.723195 154.51125)scale(0.12 -0.12)">
      <use xlink:href="#DejaVuSans-Bold-68"/>
     </g>
    </g>
   </g>
   <g id="text_27">
    <g clip-path="url(#pe95c56c4b2)">
     <!-- E -->
     <defs>
      <path d="M 9.1875 72.90625 
L 59.90625 72.90625 
L 59.90625 58.6875 
L 27.984375 58.6875 
L 27.984375 45.125 
L 58.015625 45.125 
L 58.015625 30.90625 
L 27.984375 30.90625 
L 27.984375 14.203125 
L 60.984375 14.203125 
L 60.984375 0 
L 9.1875 0 
z
" id="DejaVuSans-Bold-69"/>
     </defs>
     <g transform="translate(278.605382 194.180671)scale(0.12 -0.12)">
      <use xlink:href="#DejaVuSans-Bold-69"/>
     </g>
    </g>
   </g>
   <g id="text_28">
    <g clip-path="url(#pe95c56c4b2)">
     <!-- F -->
     <defs>
      <path d="M 9.1875 72.90625 
L 59.90625 72.90625 
L 59.90625 58.6875 
L 27.984375 58.6875 
L 27.984375 45.125 
L 58.015625 45.125 
L 58.015625 30.90625 
L 27.984375 30.90625 
L 27.984375 0 
L 9.1875 0 
z
" id="DejaVuSans-Bold-70"/>
     </defs>
     <g transform="translate(278.605382 233.850093)scale(0.12 -0.12)">
      <use xlink:href="#DejaVuSans-Bold-70"/>
     </g>
    </g>
   </g>
   <g id="text_29">
    <g clip-path="url(#pe95c56c4b2)">
     <!-- 2 -->
     <defs>
      <path d="M 28.8125 13.8125 
L 60.890625 13.8125 
L 60.890625 0 
L 7.90625 0 
L 7.90625 13.8125 
L 34.515625 37.3125 
Q 38.09375 40.53125 39.796875 43.609375 
Q 41.5 46.6875 41.5 50 
Q 41.5 55.125 38.0625 58.25 
Q 34.625 61.375 28.90625 61.375 
Q 24.515625 61.375 19.28125 59.5 
Q 14.0625 57.625 8.109375 53.90625 
L 8.109375 69.921875 
Q 14.453125 72.015625 20.65625 73.109375 
Q 26.859375 74.21875 32.8125 74.21875 
Q 45.90625 74.21875 53.15625 68.453125 
Q 60.40625 62.703125 60.40625 52.390625 
Q 60.40625 46.4375 57.328125 41.28125 
Q 54.25 36.140625 44.390625 27.484375 
z
" id="DejaVuSans-Bold-50"/>
     </defs>
     <g transform="translate(159.52118 134.676539)scale(0.12 -0.12)">
      <use xlink:href="#DejaVuSans-Bold-50"/>
     </g>
    </g>
   </g>
   <g id="text_30">
    <g clip-path="url(#pe95c56c4b2)">
     <!-- 3 -->
     <defs>
      <path d="M 46.578125 39.3125 
Q 53.953125 37.40625 57.78125 32.6875 
Q 61.625 27.984375 61.625 20.703125 
Q 61.625 9.859375 53.3125 4.21875 
Q 45.015625 -1.421875 29.109375 -1.421875 
Q 23.484375 -1.421875 17.84375 -0.515625 
Q 12.203125 0.390625 6.6875 2.203125 
L 6.6875 16.703125 
Q 11.96875 14.0625 17.15625 12.71875 
Q 22.359375 11.375 27.390625 11.375 
Q 34.859375 11.375 38.84375 13.953125 
Q 42.828125 16.546875 42.828125 21.390625 
Q 42.828125 26.375 38.75 28.9375 
Q 34.671875 31.5 26.703125 31.5 
L 19.1875 31.5 
L 19.1875 43.609375 
L 27.09375 43.609375 
Q 34.1875 43.609375 37.640625 45.828125 
Q 41.109375 48.046875 41.109375 52.59375 
Q 41.109375 56.78125 37.734375 59.078125 
Q 34.375 61.375 28.21875 61.375 
Q 23.6875 61.375 19.046875 60.34375 
Q 14.40625 59.328125 9.8125 57.328125 
L 9.8125 71.09375 
Q 15.375 72.65625 20.84375 73.4375 
Q 26.3125 74.21875 31.59375 74.21875 
Q 45.796875 74.21875 52.84375 69.546875 
Q 59.90625 64.890625 59.90625 55.515625 
Q 59.90625 49.125 56.53125 45.046875 
Q 53.171875 40.96875 46.578125 39.3125 
z
" id="DejaVuSans-Bold-51"/>
     </defs>
     <g transform="translate(159.52118 174.345961)scale(0.12 -0.12)">
      <use xlink:href="#DejaVuSans-Bold-51"/>
     </g>
    </g>
   </g>
   <g id="text_31">
    <g clip-path="url(#pe95c56c4b2)">
     <!-- 4 -->
     <defs>
      <path d="M 36.8125 57.421875 
L 16.21875 26.90625 
L 36.8125 26.90625 
z
M 33.6875 72.90625 
L 54.59375 72.90625 
L 54.59375 26.90625 
L 64.984375 26.90625 
L 64.984375 13.28125 
L 54.59375 13.28125 
L 54.59375 0 
L 36.8125 0 
L 36.8125 13.28125 
L 4.5 13.28125 
L 4.5 29.390625 
z
" id="DejaVuSans-Bold-52"/>
     </defs>
     <g transform="translate(159.52118 214.015382)scale(0.12 -0.12)">
      <use xlink:href="#DejaVuSans-Bold-52"/>
     </g>
    </g>
   </g>
   <g id="text_32">
    <g clip-path="url(#pe95c56c4b2)">
     <!-- G -->
     <defs>
      <path d="M 74.703125 5.421875 
Q 67.671875 2 60.109375 0.28125 
Q 52.546875 -1.421875 44.484375 -1.421875 
Q 26.265625 -1.421875 15.625 8.765625 
Q 4.984375 18.953125 4.984375 36.375 
Q 4.984375 54 15.8125 64.109375 
Q 26.65625 74.21875 45.515625 74.21875 
Q 52.78125 74.21875 59.4375 72.84375 
Q 66.109375 71.484375 72.015625 68.796875 
L 72.015625 53.71875 
Q 65.921875 57.171875 59.890625 58.875 
Q 53.859375 60.59375 47.796875 60.59375 
Q 36.578125 60.59375 30.5 54.3125 
Q 24.421875 48.046875 24.421875 36.375 
Q 24.421875 24.8125 30.28125 18.5 
Q 36.140625 12.203125 46.921875 12.203125 
Q 49.859375 12.203125 52.375 12.5625 
Q 54.890625 12.9375 56.890625 13.71875 
L 56.890625 27.875 
L 45.40625 27.875 
L 45.40625 40.484375 
L 74.703125 40.484375 
z
" id="DejaVuSans-Bold-71"/>
     </defs>
     <g transform="translate(277.779445 273.519514)scale(0.12 -0.12)">
      <use xlink:href="#DejaVuSans-Bold-71"/>
     </g>
    </g>
   </g>
   <g id="text_33">
    <g clip-path="url(#pe95c56c4b2)">
     <!-- S -->
     <defs>
      <path d="M 59.90625 70.609375 
L 59.90625 55.171875 
Q 53.90625 57.859375 48.1875 59.21875 
Q 42.484375 60.59375 37.40625 60.59375 
Q 30.671875 60.59375 27.4375 58.734375 
Q 24.21875 56.890625 24.21875 52.984375 
Q 24.21875 50.046875 26.390625 48.40625 
Q 28.5625 46.78125 34.28125 45.609375 
L 42.28125 44 
Q 54.4375 41.546875 59.5625 36.5625 
Q 64.703125 31.59375 64.703125 22.40625 
Q 64.703125 10.359375 57.546875 4.46875 
Q 50.390625 -1.421875 35.6875 -1.421875 
Q 28.765625 -1.421875 21.78125 -0.09375 
Q 14.796875 1.21875 7.8125 3.8125 
L 7.8125 19.671875 
Q 14.796875 15.96875 21.3125 14.078125 
Q 27.828125 12.203125 33.890625 12.203125 
Q 40.046875 12.203125 43.3125 14.25 
Q 46.578125 16.3125 46.578125 20.125 
Q 46.578125 23.53125 44.359375 25.390625 
Q 42.140625 27.25 35.5 28.71875 
L 28.21875 30.328125 
Q 17.28125 32.671875 12.21875 37.796875 
Q 7.171875 42.921875 7.171875 51.609375 
Q 7.171875 62.5 14.203125 68.359375 
Q 21.234375 74.21875 34.421875 74.21875 
Q 40.4375 74.21875 46.78125 73.3125 
Q 53.125 72.40625 59.90625 70.609375 
z
" id="DejaVuSans-Bold-83"/>
     </defs>
     <g transform="translate(40.366666 154.51125)scale(0.12 -0.12)">
      <use xlink:href="#DejaVuSans-Bold-83"/>
     </g>
    </g>
   </g>
   <g id="text_34">
    <g clip-path="url(#pe95c56c4b2)">
     <!-- T -->
     <defs>
      <path d="M 0.484375 72.90625 
L 67.671875 72.90625 
L 67.671875 58.6875 
L 43.5 58.6875 
L 43.5 0 
L 24.703125 0 
L 24.703125 58.6875 
L 0.484375 58.6875 
z
" id="DejaVuSans-Bold-84"/>
     </defs>
     <g transform="translate(397.619272 154.51125)scale(0.12 -0.12)">
      <use xlink:href="#DejaVuSans-Bold-84"/>
     </g>
    </g>
   </g>
  </g>
 </g>
 <defs>
  <clipPath id="pe95c56c4b2">
   <rect height="288" width="432" x="7.2" y="7.2"/>
  </clipPath>
 </defs>
</svg>
